<?xml version="1.0" encoding="UTF-8"?>
<svg version="1.1" xmlns="http://www.w3.org/2000/svg" width="512" height="512">
    <path
        d="M0 0 C1.31086839 0.42383167 2.62219746 0.84624023 3.93389893 1.26748657 C8.63591492 2.78841472 13.32171011 4.35664429 18.0078125 5.92578125 C19.77709728 6.51594216 21.54645733 7.10587742 23.31588745 7.69560242 C27.03331776 8.93526597 30.75007212 10.1769283 34.46630859 11.42016602 C39.09338318 12.96806295 43.72169779 14.51220722 48.35049152 16.05495453 C73.25062361 24.35524558 98.10593996 32.78205552 122.9349823 41.2924614 C126.84566084 42.6323802 130.7574472 43.96905752 134.66912842 45.30604553 C138.63394973 46.66129994 142.59821034 48.01819143 146.5625 49.375 C148.20637608 49.93751206 149.85025633 50.50001195 151.49414062 51.0625 C155.32948099 52.37484258 159.16474047 53.68742113 163 55 C163 65.56 163 76.12 163 87 C157.06 88.98 157.06 88.98 151 91 C141.95362285 94.82241288 134.39079156 99.57262634 127 106 C125.4840625 107.1446875 125.4840625 107.1446875 123.9375 108.3125 C119.43552863 112.43132487 115.77055901 117.21557956 112 122 C109.17562777 119.31654005 106.95490011 116.62298437 104.8125 113.375 C100.9787074 107.80823505 96.63808798 102.90536762 92 98 C91.30132812 97.236875 90.60265625 96.47375 89.8828125 95.6875 C83.95170147 89.43050375 77.26971932 84.56594219 70 80 C69.39269043 79.61811523 68.78538086 79.23623047 68.15966797 78.84277344 C36.89610531 59.52505457 -1.77321902 53.0375594 -37.6484375 61 C-58.72505788 65.99794466 -78.79691962 75.51282828 -95 90 C-95.92425781 90.79277344 -96.84851563 91.58554688 -97.80078125 92.40234375 C-116.184847 108.49793658 -137.46531258 137.68986037 -140 163 C-139.01951062 165.06402685 -139.01951062 165.06402685 -137 166 C-134.47208561 165.98749272 -134.47208561 165.98749272 -132 165 C-130.57041242 162.86914191 -130.57041242 162.86914191 -129.6875 160.0625 C-129.06681641 158.43634766 -129.06681641 158.43634766 -128.43359375 156.77734375 C-128.20784668 156.17519043 -127.98209961 155.57303711 -127.74951172 154.95263672 C-121.47705967 138.6115711 -113.41610065 124.32953372 -102 111 C-101.26394531 110.11828125 -100.52789062 109.2365625 -99.76953125 108.328125 C-78.89380677 84.21717405 -48.46932963 70.73569607 -17 68 C16.44933338 65.84580549 49.71905171 74.81782944 76 96 C76.886875 96.70511719 77.77375 97.41023438 78.6875 98.13671875 C89.27100663 107.0830892 99.9969452 119.92750197 105 133 C104.95575669 135.6634474 104.38598755 137.16348763 103.20703125 139.5390625 C101.65178128 142.70996049 100.83434474 145.89825709 99.9375 149.3125 C99.60105469 150.58867187 99.26460938 151.86484375 98.91796875 153.1796875 C97.66012806 158.41444579 96.75412491 163.67151217 96 169 C93.10565182 166.10565182 92.48570605 162.51298554 91.3125 158.6875 C86.90198746 144.98675892 80.14554139 131.94926328 69.73046875 121.78515625 C68 120 68 120 68 118 C67.41089844 117.73445313 66.82179688 117.46890625 66.21484375 117.1953125 C63.94187646 115.96863174 62.42206649 114.6558766 60.5625 112.875 C49.57032224 103.10191774 33.69977396 94.34039335 19 92 C15.68937517 92.3093935 15.68937517 92.3093935 13 94 C12.49940084 96.41482413 12.49940084 96.41482413 13 99 C16.68144728 101.68738796 20.47126206 102.85508208 24.8125 104.125 C39.11928595 108.66497748 50.57310694 116.32920301 61 127 C62.19882812 128.16789062 62.19882812 128.16789062 63.421875 129.359375 C74.08955131 140.32133204 86 160.2854963 86 176 C91.32170494 176.29562367 91.32170494 176.29562367 96 174 C96.33 178.29 96.66 182.58 97 187 C95.2984375 187.2165625 95.2984375 187.2165625 93.5625 187.4375 C90.19222799 187.61171478 90.19222799 187.61171478 89 189 C88.76074426 190.71158422 88.5792052 192.43129434 88.421875 194.15234375 C85.14466761 227.4876487 74.54679572 254.93808853 52 280 C51.12988281 280.99128906 50.25976562 281.98257812 49.36328125 283.00390625 C44.54058503 288.43220904 39.6251394 293.41449032 34 298 C33.4834082 298.42893555 32.96681641 298.85787109 32.43457031 299.29980469 C19.30329772 310.18969218 5.67575985 319.18533498 -9.1875 327.5625 C-10.28755371 328.18302246 -11.38760742 328.80354492 -12.52099609 329.44287109 C-14.07874756 330.308396 -14.07874756 330.308396 -15.66796875 331.19140625 C-17.06438599 331.96786499 -17.06438599 331.96786499 -18.48901367 332.76000977 C-20.69439029 333.84908199 -22.59793063 334.53239341 -25 335 C-25.25015873 338.41642759 -25.25015873 338.41642759 -25 342 C-22.26331285 344.28181305 -22.26331285 344.28181305 -19.59765625 343.7644043 C-15.06930549 342.43186048 -11.11968749 340.0817343 -7 337.8125 C-6.03175293 337.28003662 -5.06350586 336.74757324 -4.06591797 336.19897461 C12.40093603 326.99361071 27.75188947 316.3605072 42 304 C42.57685547 303.50290527 43.15371094 303.00581055 43.74804688 302.49365234 C56.32548401 291.56223146 67.1093453 279.11100299 76 265 C76.3722168 264.41057617 76.74443359 263.82115234 77.12792969 263.21386719 C87.53370896 246.43865099 93.68243932 228.39010259 97 209 C97.33644531 207.09347656 97.33644531 207.09347656 97.6796875 205.1484375 C98.14355072 202.43515537 98.58716862 199.72142788 99 197 C101.67589597 201.01384396 103.3486517 205.39636589 105.16992188 209.84375 C106.71437232 213.48742024 108.33859572 216.59686157 110.74609375 219.75 C113.08448155 223.12181741 113.30737726 223.50001149 112.75 227.25 C112.22483866 229.18341523 111.62933984 231.09794315 111 233 C110.78263184 233.67111816 110.56526367 234.34223633 110.34130859 235.03369141 C103.16807658 256.82946405 92.35181468 275.65510775 76.54296875 292.28125 C73.88484856 295.12311122 71.365856 297.90946739 69 301 C69.13083331 304.35764001 69.13083331 304.35764001 71 307 C73.28346697 307.54584466 73.28346697 307.54584466 76 307 C78.25853319 305.22955251 80.10218903 303.560154 82.0625 301.5 C82.62686768 300.91758545 83.19123535 300.3351709 83.77270508 299.73510742 C101.5548495 280.96107097 112.06267662 258.95736237 121 235 C124.48557811 236.51894459 126.92223324 238.60459919 129.75 241.125 C136.00779556 246.34684825 142.82332466 249.72875873 150.18212891 253.14746094 C152.81334019 254.38143754 155.40644401 255.68914844 158 257 C157.50707881 263.35608902 155.32461278 268.35820414 152.5625 274.0625 C152.11438965 274.990625 151.6662793 275.91875 151.20458984 276.875 C143.41655942 292.58726286 132.32793854 304.69220515 120 317 C119.35160156 317.68320312 118.70320313 318.36640625 118.03515625 319.0703125 C101.19058525 336.61535081 79.43536295 350.07142448 59 363 C58.20352051 363.5043457 57.40704102 364.00869141 56.58642578 364.52832031 C43.74442602 372.62886002 30.6975779 380.38505526 17.62988281 388.11376953 C16.98277344 388.49683258 16.33566406 388.87989563 15.66894531 389.27456665 C14.38132274 390.0351274 13.09227194 390.7932757 11.80175781 391.54891968 C8.44505906 393.52047916 5.13442947 395.54099173 1.86230469 397.65039062 C1.18718842 398.07781555 0.51207214 398.50524048 -0.1835022 398.94561768 C-1.47277061 399.76420647 -2.75303748 400.59720653 -4.02230835 401.44647217 C-8.31644359 404.14707454 -8.31644359 404.14707454 -11.55078125 403.45117188 C-12.35902344 402.97228516 -13.16726562 402.49339844 -14 402 C-14.94536621 401.4834082 -15.89073242 400.96681641 -16.86474609 400.43457031 C-17.90711426 399.82194336 -18.94948242 399.20931641 -20.0234375 398.578125 C-20.59747818 398.24176529 -21.17151886 397.90540558 -21.76295471 397.55885315 C-23.63589921 396.45969891 -25.50560264 395.35517477 -27.375 394.25 C-28.68429456 393.4787061 -29.9936211 392.70746648 -31.30297852 391.9362793 C-94.22927932 354.81845463 -94.22927932 354.81845463 -122 332 C-122.82927002 331.32517578 -122.82927002 331.32517578 -123.67529297 330.63671875 C-150.06548949 309.05648318 -172.50609901 283.87701447 -180.3125 249.875 C-180.47210205 249.1835791 -180.6317041 248.4921582 -180.79614258 247.77978516 C-183.36476799 235.57916902 -183.14263157 223.04949033 -183.11352539 210.64331055 C-183.11324268 208.93698122 -183.11340288 207.23065177 -183.1139679 205.52432251 C-183.11425261 200.93225271 -183.10840889 196.34020949 -183.10139394 191.74814582 C-183.09510583 186.93421552 -183.09455231 182.12028448 -183.09336853 177.30635071 C-183.09027122 168.20841583 -183.08207955 159.11049308 -183.07201904 150.01256353 C-183.06080801 139.64728559 -183.05533492 129.28200706 -183.05032361 118.91672456 C-183.03989547 97.61114296 -183.02232725 76.30557225 -183 55 C-182.40492519 54.80201183 -181.80985039 54.60402367 -181.19674301 54.40003586 C-174.89595929 52.30351665 -168.59555403 50.20586291 -162.29534912 48.10760498 C-159.95681925 47.3289234 -157.61819904 46.55051307 -155.27947998 45.7723999 C-141.65366656 41.23874275 -128.03861917 36.67763095 -114.45835114 32.00914764 C-101.34206832 27.50026541 -88.20578618 23.05473469 -75.046875 18.671875 C-74.34710793 18.43878883 -73.64734085 18.20570267 -72.92636871 17.96555328 C-65.89323962 15.62337986 -58.85907482 13.28434118 -51.82318497 10.95047379 C-49.83355241 10.29018537 -47.84427812 9.62882634 -45.8550415 8.96734619 C-43.31401372 8.12258331 -40.77131523 7.28354421 -38.22747803 6.44720459 C-33.01349365 4.72379486 -27.83641799 2.98114534 -22.73828125 0.9375 C-21.97322266 0.63755127 -21.20816406 0.33760254 -20.41992188 0.02856445 C-18.51517307 -0.73161391 -16.62563863 -1.52964653 -14.73828125 -2.33203125 C-9.24182197 -3.3141572 -5.22274357 -1.75515582 0 0 Z M-23 90 C-23.33 92.31 -23.66 94.62 -24 97 C-22.19355464 98.85943442 -20.73832094 99.9204205 -18.12451172 100.20214844 C-15.88270221 100.17849089 -13.67262823 100.04852894 -11.4375 99.875 C-10.66986328 99.83890625 -9.90222656 99.8028125 -9.11132812 99.765625 C-6.01058724 99.5601705 -3.58417419 99.39131822 -0.96484375 97.63671875 C0.27233399 95.8763245 0.27233399 95.8763245 -0.125 92.9375 C-0.74650413 89.70744585 -0.74650413 89.70744585 -4 88 C-10.59228625 87.34462651 -16.77643183 87.7368843 -23 90 Z M-50.5625 97.0625 C-51.62041748 97.53840576 -51.62041748 97.53840576 -52.69970703 98.02392578 C-63.46231588 102.95546773 -72.57674494 108.60699002 -81 117 C-81.56332031 117.54011719 -82.12664062 118.08023438 -82.70703125 118.63671875 C-95.76286352 132.31261693 -98.23299628 152.02401196 -97.9921875 170.03125 C-97.97465751 172.39322477 -97.95775056 174.75520423 -97.94140625 177.1171875 C-97.91062162 180.79863818 -97.87525534 184.4798471 -97.82861328 188.16113281 C-97.55517739 210.98842091 -97.87873829 233.87980659 -114.4296875 251.6015625 C-116.91923336 254.10588311 -119.44917707 256.5583248 -122 259 C-123.67014734 260.66317871 -125.33778369 262.32889483 -127 264 C-125.92598892 266.91517292 -125.22189824 268.77810176 -123 271 C-116.38993824 270.63400665 -112.45730278 265.37747049 -108 261 C-107.21882813 260.25492188 -106.43765625 259.50984375 -105.6328125 258.7421875 C-91.27651443 244.0878348 -85.77338369 223.33148449 -85.96365356 203.27087402 C-85.97822601 202.1811731 -85.99279846 201.09147217 -86.0078125 199.96875 C-86.02534249 197.60677523 -86.04224944 195.24479577 -86.05859375 192.8828125 C-86.08937838 189.20136182 -86.12474466 185.5201529 -86.17138672 181.83886719 C-86.68291488 139.13488721 -86.68291488 139.13488721 -70.46484375 122.2421875 C-63.16358224 115.60046942 -54.39541011 111.57921567 -45.48046875 107.578125 C-39.10926576 105.26628735 -39.10926576 105.26628735 -34.9375 100.5625 C-34.82356079 97.95568495 -34.82356079 97.95568495 -36.125 95.6875 C-37.85174887 93.81626841 -37.85174887 93.81626841 -40.14453125 93.703125 C-43.94659526 94.09841483 -47.12124135 95.49604893 -50.5625 97.0625 Z M-56 136 C-64.65679835 146.2042193 -71.50551953 158.75344854 -74 172 C-73.66468776 176.52527694 -73.66468776 176.52527694 -71 180 C-68.36881054 180.33733198 -66.72148803 180.48593796 -64.48046875 178.9765625 C-62.2530276 176.00272287 -61.64523177 172.60670557 -60.75 169.0625 C-56.47992654 153.56790547 -47.81385259 140.78802458 -33.84375 132.46875 C-18.79612926 124.69690192 -2.82682104 124.01668491 13.25 128.75390625 C29.38395998 134.1150867 41.66798688 144.8112931 49.6875 159.8125 C58.83170455 179.12999963 56.90830923 201.24406753 50 221 C43.36687288 238.49630318 33.97022786 253.69333729 22 268 C21.27554688 268.86753906 20.55109375 269.73507812 19.8046875 270.62890625 C9.67168866 282.37126373 -3.37760498 292.43728232 -17.14453125 299.5859375 C-19.53191616 301.40537611 -20.10904377 303.18099564 -21 306 C-18.525 308.475 -18.525 308.475 -16 311 C-11.25428129 309.63380825 -7.3450103 307.57610986 -3.25 304.875 C-2.63801758 304.47539062 -2.02603516 304.07578125 -1.39550781 303.6640625 C4.00383931 300.08901024 9.07871207 296.21125137 14 292 C14.80824219 291.31421875 15.61648437 290.6284375 16.44921875 289.921875 C39.24618083 270.0237417 55.85015874 244.16407041 64 215 C64.33773437 213.89398438 64.67546875 212.78796875 65.0234375 211.6484375 C70.35594539 191.54145819 68.27496596 169.52709607 58.26879883 151.35449219 C47.44438364 132.7336424 31.42987693 121.73835675 10.9375 115.7265625 C-14.32589095 109.47790463 -38.31555484 117.24992112 -56 136 Z M-39 162 C-48.49540138 175.31458497 -55.04775319 190.71797039 -61.32830811 205.73846436 C-85.81499109 264.16046959 -85.81499109 264.16046959 -106.19921875 278.703125 C-108.81962449 280.59027187 -110.98817269 282.46899145 -113 285 C-113.17778312 287.69628579 -113.17778312 287.69628579 -112 290 C-109.27170863 292.25831148 -109.27170863 292.25831148 -106.640625 291.84375 C-87.5407993 285.74084711 -75.01143774 262.74629959 -66.39086914 246.15258789 C-60.14986674 233.72940071 -54.79988557 220.8967447 -49.44335938 208.07324219 C-46.05669012 199.98338887 -42.61675876 191.95503116 -38.70703125 184.1015625 C-38.39247482 183.46782211 -38.0779184 182.83408173 -37.75382996 182.18113708 C-32.09542277 171.04694294 -24.41090615 160.48936246 -12.484375 155.71875 C-4.79532921 153.49424619 3.4425988 153.15097971 11 156 C14.375 158.0625 14.375 158.0625 17 160 C17.99 160.33 18.98 160.66 20 161 C21.0625 162.78515625 21.0625 162.78515625 22 165 C22.33 165.69996094 22.66 166.39992187 23 167.12109375 C30.4897763 184.47045838 29.08107561 203.42190873 22.3125 220.75 C13.51698071 242.05550309 -3.89000211 258.45687115 -22 272 C-22.56203125 272.4228125 -23.1240625 272.845625 -23.703125 273.28125 C-36.25974815 282.66937946 -49.66724069 290.66874321 -63.375 298.25 C-64.12031982 298.6627417 -64.86563965 299.0754834 -65.63354492 299.50073242 C-68.99764257 301.35855115 -72.36926128 303.19840429 -75.76171875 305.00390625 C-76.85097656 305.60074219 -77.94023437 306.19757813 -79.0625 306.8125 C-80.00222656 307.31394531 -80.94195312 307.81539062 -81.91015625 308.33203125 C-84.20342772 309.86150914 -84.20342772 309.86150914 -84.90625 312.55078125 C-85.24264267 315.1321989 -85.24264267 315.1321989 -83.4375 317.375 C-81.0920508 319.30468575 -81.0920508 319.30468575 -78.16625977 318.75683594 C-75.04900584 318.01171394 -72.70923024 317.04083185 -69.90234375 315.515625 C-68.94634277 314.99911377 -67.9903418 314.48260254 -67.00537109 313.95043945 C-65.99297363 313.38929443 -64.98057617 312.82814941 -63.9375 312.25 C-62.88127441 311.67016357 -61.82504883 311.09032715 -60.73681641 310.49291992 C-37.47594956 297.59940577 -15.47833413 283.20155308 4 265 C5.3303125 263.76830078 5.3303125 263.76830078 6.6875 262.51171875 C26.26551081 243.7401885 39.2405381 219.63904598 40.3125 192.1875 C39.91097135 177.8505652 36.74062701 162.26326581 26 152 C4.22513704 135.17727978 -22.0710054 141.57043364 -39 162 Z M-12.17407227 170.67724609 C-13.50881422 172.74249762 -14.79348219 174.83120383 -16.0625 176.9375 C-16.78203857 178.13113159 -16.78203857 178.13113159 -17.51611328 179.34887695 C-26.05826111 193.68758184 -33.28046057 208.32926363 -39.625 223.75 C-52.00442875 253.83274204 -68.04148191 277.23094695 -95.2265625 296.06640625 C-97.794903 297.73635325 -97.794903 297.73635325 -99 299 C-99.41717279 301.41537838 -99.41717279 301.41537838 -99 304 C-97.40383995 306.00965774 -97.40383995 306.00965774 -95 307 C-90.25845537 306.68389702 -87.01717149 304.23819122 -83.3125 301.5 C-82.38884644 300.82723022 -82.38884644 300.82723022 -81.4465332 300.14086914 C-75.97524066 296.09631313 -70.91485264 291.70517463 -66 287 C-64.89785156 285.99259766 -64.89785156 285.99259766 -63.7734375 284.96484375 C-46.07371556 268.23454121 -36.07414325 245.95048036 -26.8515625 223.859375 C-20.11389641 207.783018 -12.65174391 192.40550312 -2.8125 177.98046875 C-1.00037615 175.00061855 0.16295855 172.38164746 1 169 C0.09764165 166.51894806 0.09764165 166.51894806 -2 165 C-7.19746233 163.93385388 -9.32233535 166.60333621 -12.17407227 170.67724609 Z M-144.125 182.5625 C-146.60135881 185.78176645 -146.73499801 187.95871964 -147 192 C-147.0515625 192.77472656 -147.103125 193.54945313 -147.15625 194.34765625 C-147.51271875 198.84614177 -147.51271875 198.84614177 -145.67578125 202.7734375 C-143.9336093 204.31583364 -143.9336093 204.31583364 -140.9375 203.875 C-137.70744585 203.25349587 -137.70744585 203.25349587 -136 200 C-135.593546 197.4839925 -135.30941253 195.09331931 -135.125 192.5625 C-135.0528125 191.89412109 -134.980625 191.22574219 -134.90625 190.53710938 C-134.64589293 187.08052665 -134.73470459 185.36348917 -136.8046875 182.52734375 C-139.80694174 180.4385868 -141.16720373 180.3876498 -144.125 182.5625 Z M-123 184 C-123.61971789 186.25516752 -123.61971789 186.25516752 -123.80859375 188.796875 C-123.91324951 189.74804199 -124.01790527 190.69920898 -124.12573242 191.67919922 C-124.22861572 192.69256348 -124.33149902 193.70592773 -124.4375 194.75 C-126.08208654 208.6766823 -128.84342579 220.83559611 -135.53393555 233.28076172 C-137.17963269 236.47132889 -138.13423777 238.33852574 -137.40625 241.92578125 C-136.10510246 244.27804508 -136.10510246 244.27804508 -133.125 245.0625 C-129.98304446 245.31764678 -129.98304446 245.31764678 -128.01953125 243.41015625 C-115.79497627 228.82108387 -112.03638786 204.28082911 -111.63671875 185.98828125 C-112.10218701 183.4407184 -112.96586691 182.55836927 -115 181 C-118.92763209 180.41085519 -120.5640448 180.89651373 -123 184 Z M2 189 C1.26210236 191.80633511 0.65759691 194.53077438 0.125 197.375 C-2.76259663 211.37013449 -8.06841948 223.10262922 -16 235 C-15.6758631 238.32240324 -15.39223697 239.60776303 -13 242 C-10.67484501 242.75342517 -10.67484501 242.75342517 -8 242 C4.95830323 230.19354594 11.77280722 208.49912062 13.3125 191.5625 C13.18542656 188.99629985 13.18542656 188.99629985 11.8125 187.125 C7.7956551 184.63178592 4.85495774 185.52228663 2 189 Z M-48.5 316.375 C-49.57121094 316.88289063 -50.64242187 317.39078125 -51.74609375 317.9140625 C-53.27943359 318.64882813 -53.27943359 318.64882813 -54.84375 319.3984375 C-55.78412109 319.84880371 -56.72449219 320.29916992 -57.69335938 320.76318359 C-60.10699713 321.91431067 -60.10699713 321.91431067 -62 324 C-62.58345476 326.95746492 -62.58345476 326.95746492 -62 330 C-59.85910391 331.94959619 -59.85910391 331.94959619 -57 333 C-54.24243509 332.52894667 -54.24243509 332.52894667 -51.5 331.125 C-50.46101562 330.64289063 -49.42203125 330.16078125 -48.3515625 329.6640625 C-47.24554688 329.11492187 -46.13953125 328.56578125 -45 328 C-43.81148437 327.43023437 -42.62296875 326.86046875 -41.3984375 326.2734375 C-34.95933254 323.43622203 -34.95933254 323.43622203 -30.6328125 318.28125 C-30.42398438 317.5284375 -30.21515625 316.775625 -30 316 C-31.62339805 314.29115995 -33.29319053 312.62553283 -35 311 C-39.6274188 311 -44.40016957 314.40155575 -48.5 316.375 Z M48.875 316.125 C43.73966717 320.03017471 38.63771136 323.59960897 32.953125 326.68359375 C30.68952659 328.20925908 29.38814448 329.65293993 28 332 C28.66771183 334.39263407 29.22097385 336.22097385 31 338 C36.32108631 338.62971436 39.49622833 336.92817495 43.75 334 C44.35618164 333.59644287 44.96236328 333.19288574 45.58691406 332.77709961 C51.71308315 328.63991497 57.76398762 324.23601238 63 319 C63.36962413 316.11693182 63.4200394 314.60905713 61.75 312.1875 C56.68994306 308.75388993 52.80674315 313.05881245 48.875 316.125 Z "
        fill="#167BFF" transform="translate(235,53)" />
    <path
        d="M0 0 C1.08763138 0.36610634 1.08763138 0.36610634 2.19723511 0.73960876 C4.5917421 1.5484434 6.98080221 2.37225613 9.37011719 3.19628906 C11.06957525 3.77380126 12.76935016 4.35038178 14.46942139 4.92608643 C18.96369789 6.45085919 23.45350469 7.98839991 27.94250488 9.52862549 C32.37407608 11.04668533 36.80976625 12.55259784 41.24511719 14.05957031 C56.47295562 19.23784438 71.68569525 24.46016549 86.89900208 29.68093872 C87.65232126 29.93944736 88.40564045 30.19795601 89.18178749 30.46429825 C90.67097194 30.97532616 92.16014721 31.48638084 93.64931297 31.99746323 C103.43454012 35.35516116 113.22513534 38.69441572 123.04623413 41.94598389 C125.13736755 42.63925425 127.22708172 43.33669613 129.31665039 44.03466797 C136.80466655 46.53304642 144.30067349 49.00376665 151.81196594 51.43136597 C155.64365302 52.67165867 159.47185842 53.9225006 163.29977417 55.17437744 C165.14767775 55.77560711 166.9972011 56.37188432 168.84841919 56.96282959 C192.05492058 64.37410126 192.05492058 64.37410126 196.91699219 72.33691406 C198.77490255 76.51721237 199.54332027 79.73911697 199.53051758 84.296875 C199.53044205 85.19750671 199.53036652 86.09813843 199.5302887 87.02606201 C199.52512741 87.98973694 199.51996613 88.95341187 199.51464844 89.94628906 C199.51252602 91.43603241 199.51252602 91.43603241 199.51036072 92.95587158 C199.50476807 96.12458318 199.49221689 99.29322385 199.47949219 102.46191406 C199.47447624 104.61165262 199.4699135 106.7613923 199.46582031 108.91113281 C199.4556524 114.17810914 199.43607545 119.44493229 199.41699219 124.71191406 C190.50699219 124.38191406 181.59699219 124.05191406 172.41699219 123.71191406 C172.4028125 121.22015625 172.38863281 118.72839844 172.37402344 116.16113281 C172.34341073 113.74831571 172.30432038 111.33577469 172.2644043 108.9230957 C172.24120523 107.24611167 172.22682407 105.56898154 172.22143555 103.8918457 C172.21215909 101.48068001 172.17120428 99.07181782 172.12402344 96.66113281 C172.12992241 95.53598518 172.12992241 95.53598518 172.13594055 94.3881073 C172.12410806 92.01124758 172.12410806 92.01124758 171.41699219 88.71191406 C168.16017143 86.34572561 164.79604829 85.00931906 160.9921875 83.75756836 C159.92206421 83.40202377 158.85194092 83.04647919 157.74938965 82.68016052 C156.59297974 82.30263138 155.43656982 81.92510223 154.24511719 81.53613281 C152.38606813 80.92073757 150.52702006 80.30533937 148.66801453 79.68981266 C146.69407377 79.03744545 144.71919656 78.3879908 142.74401855 77.73937988 C136.55937526 75.70816791 130.38078822 73.6586496 124.20154572 71.61108017 C122.13450793 70.92634895 120.06723668 70.24232614 117.99993896 69.55838013 C107.03205154 65.92768297 96.09218204 62.21902068 85.16699219 58.46191406 C68.25117671 52.65053548 51.29125982 46.97653822 34.31054688 41.35766602 C25.80492915 38.53911307 17.30764859 35.7152328 8.88183594 32.66503906 C7.67454834 32.23102783 6.46726074 31.7970166 5.22338867 31.34985352 C3.11700205 30.58509659 1.01557545 29.80643348 -1.07885742 29.00952148 C-2.42669312 28.51995972 -2.42669312 28.51995972 -3.80175781 28.02050781 C-4.54361328 27.74005615 -5.28546875 27.45960449 -6.04980469 27.1706543 C-12.51309902 26.00021 -18.88843554 28.24567935 -24.94238281 30.33447266 C-25.74318614 30.6038842 -26.54398947 30.87329575 -27.36905956 31.15087128 C-30.02620819 32.04682133 -32.67954094 32.95356138 -35.33300781 33.86035156 C-37.23458016 34.50393697 -39.13638551 35.14683433 -41.03840637 35.78909302 C-45.10383378 37.16347458 -49.16760616 38.54260574 -53.23013306 39.92553711 C-59.60910153 42.0969766 -65.99164229 44.2577733 -72.37475586 46.41699219 C-81.12059963 49.37656857 -89.8649001 52.3406569 -98.60791016 55.30859375 C-115.55399586 61.06098964 -132.50473702 66.79959371 -149.45881844 72.52837944 C-154.72156057 74.30692241 -159.98309947 76.08896697 -165.24365711 77.87396049 C-168.48221062 78.97229167 -171.72157666 80.06821062 -174.96115685 81.16350937 C-176.45705412 81.66986024 -177.95259778 82.17725717 -179.44776344 82.68576431 C-181.4708453 83.37367486 -183.49513341 84.05790843 -185.51977539 84.74121094 C-186.64998611 85.12434448 -187.78019684 85.50747803 -188.94465637 85.90222168 C-191.58300781 86.71191406 -191.58300781 86.71191406 -193.58300781 86.71191406 C-194.74545072 90.40214744 -194.71163072 93.88815976 -194.71672058 97.73999023 C-194.71898614 98.44800183 -194.72125169 99.15601343 -194.7235859 99.88547993 C-194.72991693 102.2586308 -194.72909706 104.63172443 -194.72827148 107.00488281 C-194.73126391 108.70699131 -194.73466663 110.40909913 -194.7384491 112.11120605 C-194.74729404 116.74026724 -194.74962768 121.36930994 -194.75026488 125.99837875 C-194.75097617 128.89781638 -194.75311219 131.79724933 -194.7557621 134.69668579 C-194.76502366 144.8345774 -194.76909679 154.97245586 -194.76831055 165.11035156 C-194.76771252 174.51902993 -194.77820798 183.92765044 -194.79405421 193.3363142 C-194.80720726 201.43855397 -194.81249107 209.54077506 -194.81185514 217.6430254 C-194.81160202 222.47040143 -194.81434781 227.29772627 -194.82503319 232.12509155 C-194.83484316 236.68218594 -194.83470681 241.23918167 -194.82751656 245.79627991 C-194.82648586 247.45204312 -194.82874111 249.1078129 -194.83487701 250.76356506 C-194.86571013 259.67512241 -194.54779983 268.46715864 -193.67720032 277.34008789 C-193.59757433 278.15348727 -193.51794834 278.96688665 -193.43590945 279.8049345 C-190.24814413 309.60853385 -175.21086041 335.52965208 -154.58300781 356.71191406 C-153.99825684 357.31712891 -153.41350586 357.92234375 -152.81103516 358.54589844 C-145.13032641 366.46894506 -137.37043622 374.00799141 -128.58300781 380.71191406 C-127.88079102 381.25283691 -127.17857422 381.79375977 -126.45507812 382.35107422 C-114.81193561 391.30345331 -102.9320141 399.76337803 -90.58300781 407.71191406 C-89.5047876 408.40800781 -89.5047876 408.40800781 -88.40478516 409.11816406 C-73.65037481 418.61373989 -58.62882676 427.68767968 -43.58300781 436.71191406 C-42.92709656 437.10558167 -42.2711853 437.49924927 -41.59539795 437.90484619 C-37.59378934 440.30469936 -33.58617942 442.69406735 -29.57073975 445.07070923 C-28.29690312 445.82579151 -27.02445669 446.58322446 -25.753479 447.34310913 C-23.98333232 448.4002874 -22.2078647 449.44789937 -20.43066406 450.49316406 C-19.42011963 451.09193359 -18.4095752 451.69070313 -17.3684082 452.30761719 C-14.63273577 453.68684305 -12.63432942 454.50308072 -9.58300781 454.71191406 C-7.36735357 453.95160672 -7.36735357 453.95160672 -5.26660156 452.56347656 C-4.43459229 452.06146729 -3.60258301 451.55945801 -2.74536133 451.04223633 C-1.84615967 450.47947998 -0.94695801 449.91672363 -0.02050781 449.33691406 C0.93476807 448.75546631 1.89004395 448.17401855 2.87426758 447.57495117 C4.9576605 446.30524032 7.03717482 445.02914895 9.11328125 443.74755859 C12.4932151 441.66494786 15.88608114 439.60451528 19.28417969 437.55175781 C24.04012793 434.67732683 28.78975653 431.79282715 33.53417969 428.89941406 C37.79969796 426.2983262 42.07452931 423.71368607 46.36230469 421.14941406 C67.46359337 408.49846472 88.24817354 395.17387978 107.41699219 379.71191406 C107.96887207 379.27427734 108.52075195 378.83664062 109.08935547 378.38574219 C135.90847747 357.04736719 155.38566843 331.79544408 167.41699219 299.71191406 C176.65699219 299.71191406 185.89699219 299.71191406 195.41699219 299.71191406 C188.30558455 328.15754462 175.36593105 350.67628147 155.57324219 372.33300781 C153.62083782 374.48701915 151.73421859 376.68219132 149.85449219 378.89941406 C146.97676257 382.1995627 143.88995149 385.06190571 140.54980469 387.88769531 C138.29998977 389.81198756 136.14673967 391.82027191 133.97949219 393.83691406 C103.95241378 420.84757364 67.73163873 441.16597831 33.11621094 461.62988281 C32.4213559 462.04077652 31.72650085 462.45167023 31.0105896 462.87501526 C28.22900143 464.51945549 25.44733025 466.16374252 22.66369629 467.80471802 C14.0760223 472.86947114 5.55147082 477.98572626 -2.64038086 483.68017578 C-6.28154317 486.14997401 -9.12917982 487.78114455 -13.58300781 487.71191406 C-16.19359016 486.36669634 -18.34194298 485.03116934 -20.70800781 483.33691406 C-22.2272936 482.30406404 -23.74965526 481.27572973 -25.27441406 480.25097656 C-26.11633301 479.68282227 -26.95825195 479.11466797 -27.82568359 478.52929688 C-33.00945647 475.11261498 -38.33196506 471.92135849 -43.64550781 468.71191406 C-44.83488983 467.99122789 -46.02426144 467.27052455 -47.21362305 466.54980469 C-55.83917196 461.33159404 -64.51220225 456.19502702 -73.19100952 451.06607056 C-84.25104481 444.52866956 -95.25213475 437.95439023 -105.93652344 430.81152344 C-107.50524554 429.76384782 -109.0829775 428.72970041 -110.66113281 427.69628906 C-125.24982651 418.10051727 -139.20090564 407.9282061 -152.58300781 396.71191406 C-153.19805176 396.20128418 -153.8130957 395.6906543 -154.44677734 395.16455078 C-166.66316244 385.01088419 -177.8739606 374.3353408 -187.58300781 361.71191406 C-188.01468262 361.15665039 -188.44635742 360.60138672 -188.89111328 360.02929688 C-211.76849494 330.45193656 -222.0850808 297.34583398 -221.98706055 260.16064453 C-221.99277918 258.17099122 -221.99974914 256.18134117 -222.00785828 254.19169617 C-222.02562578 248.84730574 -222.02465433 243.5030809 -222.01891589 238.15866995 C-222.01580453 233.68243283 -222.02193696 229.20622663 -222.02795464 224.72999394 C-222.04194 214.17413589 -222.04048463 203.6183589 -222.02905273 193.0625 C-222.01753669 182.18882225 -222.03171924 171.31539014 -222.05844921 160.44174469 C-222.08060499 151.07656082 -222.08724505 141.7114541 -222.0813728 132.34624588 C-222.07800668 126.76488791 -222.08039742 121.18368793 -222.09762383 115.60235214 C-222.11309225 110.36377062 -222.10913846 105.12555477 -222.09031868 99.88698769 C-222.08663467 97.96816515 -222.08973577 96.04931547 -222.10020447 94.13051796 C-222.11342688 91.50642214 -222.101857 88.88353538 -222.08421326 86.25949097 C-222.09381826 85.50520935 -222.10342327 84.75092773 -222.11331934 83.9737891 C-222.01724595 77.00434681 -219.68895614 71.82683322 -214.7746582 66.89160156 C-211.40528848 64.59054343 -208.35821364 63.20165414 -204.51660156 61.83691406 C-203.82868027 61.58989746 -203.14075897 61.34288086 -202.43199158 61.08837891 C-200.1547377 60.27855953 -197.87059074 59.49205564 -195.58300781 58.71191406 C-194.79146301 58.44121094 -193.99991821 58.17050781 -193.18438721 57.89160156 C-187.96422445 56.11509891 -182.73171149 54.37720619 -177.49465942 52.6512146 C-172.51123237 51.00829195 -167.53148339 49.35429727 -162.55175781 47.70019531 C-161.53928482 47.36401688 -160.52681183 47.02783844 -159.48365784 46.68147278 C-149.85113386 43.47814815 -140.24638112 40.19613481 -130.64550781 36.89941406 C-112.36348715 30.62527947 -94.03064402 24.50812639 -75.68457031 18.42407227 C-64.85882353 14.83004865 -54.04761152 11.20304032 -43.27441406 7.45410156 C-42.31787933 7.12234924 -41.3613446 6.79059692 -40.37582397 6.4487915 C-35.92251406 4.90382164 -31.47318074 3.34904982 -27.03027344 1.77441406 C-25.46597877 1.22968797 -23.90153477 0.68539047 -22.33691406 0.14160156 C-21.30323448 -0.23195969 -21.30323448 -0.23195969 -20.24867249 -0.61306763 C-12.96576986 -3.11766332 -7.15133455 -2.50136583 0 0 Z "
        fill="#167AFF" transform="translate(236.5830078125,13.2880859375)" />
    <path
        d="M0 0 C15.17159938 12.57043148 26.28818522 30.43310878 28.7668457 50.17285156 C30.58361837 72.25240387 26.28885129 93.79801388 11.6574707 111.09863281 C10.72161133 112.12537109 10.72161133 112.12537109 9.7668457 113.17285156 C8.67629883 114.40068359 8.67629883 114.40068359 7.5637207 115.65332031 C-6.57110059 130.72286366 -26.03724403 138.86822376 -46.58081055 139.52661133 C-68.84893623 139.74636257 -88.30378185 131.69096549 -104.4831543 116.48535156 C-119.29401946 100.95200517 -126.83866773 80.91854868 -126.58227539 59.51220703 C-125.82252469 36.77653803 -116.2588006 18.32067392 -100.08081055 2.67675781 C-72.20215501 -21.83657305 -29.12414954 -22.73391653 0 0 Z M-27.39257812 36.0234375 C-28.91592661 37.56065789 -30.4314369 39.10567422 -31.94018555 40.65722656 C-32.74679123 41.47282043 -33.55339691 42.28841431 -34.38444519 43.12872314 C-36.94549681 45.71967369 -39.49634198 48.32035337 -42.0456543 50.92285156 C-44.61373508 53.53868046 -47.18398881 56.15222271 -49.76042175 58.75982666 C-51.36034644 60.37959505 -52.95530966 62.00428159 -54.5448761 63.63421631 C-55.26289902 64.36207336 -55.98092194 65.08993042 -56.72070312 65.83984375 C-57.35244949 66.48507996 -57.98419586 67.13031616 -58.63508606 67.79510498 C-60.2331543 69.17285156 -60.2331543 69.17285156 -62.2331543 69.17285156 C-62.51513672 68.65376221 -62.79711914 68.13467285 -63.08764648 67.59985352 C-64.38111952 65.22557306 -65.68205975 62.8554634 -66.9831543 60.48535156 C-67.4265918 59.66873047 -67.8700293 58.85210937 -68.3269043 58.01074219 C-72.51882933 49.92549861 -72.51882933 49.92549861 -79.6081543 44.67285156 C-83.95121442 44.07380879 -85.6383657 44.74845925 -89.2331543 47.17285156 C-91.770778 50.97928711 -91.70742617 52.64194355 -91.2331543 57.17285156 C-90.03704846 60.17953615 -88.45076034 62.89753788 -86.7956543 65.67285156 C-86.34552979 66.45096191 -85.89540527 67.22907227 -85.43164062 68.03076172 C-84.50095476 69.63325639 -83.56333394 71.23174306 -82.61889648 72.82617188 C-81.30432819 75.05232242 -80.01908131 77.29281604 -78.7409668 79.54003906 C-77.96881434 80.87671971 -77.19543872 82.21269477 -76.4206543 83.54785156 C-76.07268799 84.15951172 -75.72472168 84.77117187 -75.36621094 85.40136719 C-73.13988982 89.15474677 -70.89916618 91.78648534 -67.2331543 94.17285156 C-60.80106937 94.98962425 -58.5716712 93.96624774 -53.2331543 90.17285156 C-51.56918248 88.69474366 -49.94539876 87.17036418 -48.36108398 85.60717773 C-47.44703796 84.70911911 -46.53299194 83.81106049 -45.59124756 82.88578796 C-44.61203017 81.91294627 -43.6333024 80.93961155 -42.6550293 79.96582031 C-41.63713418 78.95690511 -40.6191683 77.9480613 -39.60113525 76.93928528 C-37.47606986 74.830646 -35.35538025 72.71770945 -33.23706055 70.60229492 C-30.52981119 67.90044092 -27.80675307 65.21513827 -25.07950974 62.53348827 C-22.97430006 60.45809158 -20.88050255 58.37146132 -18.78964996 56.28161049 C-17.79065264 55.28680239 -16.78755844 54.29609 -15.78023529 53.30971336 C-14.370861 51.92735212 -12.97888168 50.52732425 -11.58764648 49.12670898 C-10.79299988 48.33713303 -9.99835327 47.54755707 -9.17962646 46.73405457 C-6.81606596 43.62403924 -5.98157356 40.99007475 -5.2331543 37.17285156 C-6.51078114 33.02056431 -7.57852642 31.57364414 -11.2956543 29.29785156 C-17.95630942 26.74696237 -22.76309833 31.52990513 -27.39257812 36.0234375 Z "
        fill="#167DFF" transform="translate(468.233154296875,163.8271484375)" />
</svg>