<?xml version="1.0" encoding="UTF-8"?>
<svg version="1.1" xmlns="http://www.w3.org/2000/svg" width="512" height="512">
    <path
        d="M0 0 C0.80550281 0.40104256 1.61100562 0.80208511 2.44091761 1.21528047 C5.13476917 2.55891616 7.8227482 3.91389681 10.51089478 5.26890564 C12.44244599 6.23524546 14.37434991 7.20088056 16.30657959 8.16586304 C21.54933335 10.78666581 26.78709347 13.4173096 32.02402067 16.04973149 C37.49844233 18.79944002 42.97739262 21.54009457 48.45587158 24.28170776 C58.8286861 29.4743326 69.19739484 34.6751016 79.56465781 39.87879986 C93.574726 46.91036295 107.591093 53.92934685 121.60711479 60.94903278 C143.68909586 72.00883247 165.76260615 83.08543149 187.83755493 94.1592865 C187.83755493 139.0392865 187.83755493 183.9192865 187.83755493 230.1592865 C190.80755493 230.4892865 193.77755493 230.8192865 196.83755493 231.1592865 C216.89150846 235.61696822 236.37179075 245.74344644 251.83755493 259.1592865 C252.37283813 259.61384216 252.90812134 260.06839783 253.45962524 260.53672791 C273.48861205 277.63822074 287.58529784 300.31517746 295.21255493 325.4717865 C295.57051147 326.65236633 295.57051147 326.65236633 295.93569946 327.85679626 C299.31529349 339.63405831 300.21626701 351.16168952 300.15005493 363.3467865 C300.14756744 364.07772522 300.14507996 364.80866394 300.14251709 365.56175232 C300.08572325 376.34756636 299.80512685 386.71801416 296.83755493 397.1592865 C296.61712524 397.95624939 296.39669556 398.75321228 296.16958618 399.57432556 C291.14238422 417.22938006 283.46739198 433.85223097 271.83755493 448.1592865 C271.423927 448.67684509 271.01029907 449.19440369 270.58413696 449.72764587 C248.55951159 477.18399289 216.52110571 495.81368369 181.31021118 499.96080017 C143.88155956 502.96529205 105.88852209 494.61464074 76.75161743 469.83506775 C59.97138393 454.42694449 59.97138393 454.42694449 57.83755493 450.1592865 C54.62494977 450.78778885 52.39743994 451.90806852 49.67764282 453.7127533 C48.45839867 454.51576118 48.45839867 454.51576118 47.21452332 455.33499146 C46.33860031 455.92025101 45.46267731 456.50551056 44.56021118 457.10850525 C43.63905014 457.71757217 42.7178891 458.3266391 41.76881409 458.9541626 C38.80899694 460.91305236 35.85450157 462.87980859 32.90005493 464.8467865 C30.97656804 466.12139015 29.05274309 467.39548378 27.12857056 468.66905212 C25.70367813 469.61350693 25.70367813 469.61350693 24.25 470.57704163 C22.33200991 471.84788323 20.4130841 473.11731374 18.4932251 474.3853302 C13.5829249 477.63683303 8.71164915 480.93143193 3.8878479 484.31016541 C2.45595375 485.30050529 2.45595375 485.30050529 0.99513245 486.31085205 C-0.8235452 487.57082523 -2.63227553 488.84531476 -4.42927551 490.13601685 C-5.24171219 490.69517288 -6.05414886 491.25432892 -6.89120483 491.83042908 C-7.59801895 492.32996597 -8.30483307 492.82950287 -9.0330658 493.34417725 C-11.16244507 494.1592865 -11.16244507 494.1592865 -13.68412781 493.45664978 C-15.90055644 492.29638141 -18.00023658 491.10843464 -20.08676147 489.73033142 C-21.20175018 488.99845108 -21.20175018 488.99845108 -22.33926392 488.25178528 C-23.13942932 487.71981537 -23.93959473 487.18784546 -24.76400757 486.63975525 C-26.04401642 485.79611923 -26.04401642 485.79611923 -27.34988403 484.93544006 C-30.16561414 483.07736188 -32.97668199 481.2123684 -35.78744507 479.3467865 C-37.75040998 478.04806878 -39.71346465 476.74948671 -41.67660522 475.45103455 C-55.67030301 466.18450051 -69.61719895 456.84823333 -83.53744507 447.4717865 C-84.42861023 446.87208038 -85.31977539 446.27237427 -86.23794556 445.65449524 C-116.48014269 425.28875287 -116.48014269 425.28875287 -130.16244507 413.1592865 C-130.70787964 412.67701599 -131.25331421 412.19474548 -131.8152771 411.69786072 C-150.3378171 395.21948715 -165.2602911 376.29065056 -178.16244507 355.1592865 C-178.55383667 354.52232849 -178.94522827 353.88537048 -179.34848022 353.22911072 C-193.03140188 330.70796612 -201.65172532 305.93887032 -207.47494507 280.3467865 C-207.71761108 279.28685486 -207.9602771 278.22692322 -208.21029663 277.13487244 C-211.32630964 262.77124245 -212.46685109 248.5708211 -212.38949585 233.90904236 C-212.3889296 232.36960864 -212.38925245 230.83017438 -212.39038086 229.29074097 C-212.39094705 225.17199514 -212.37931386 221.05336942 -212.36523294 216.93465114 C-212.35260107 212.6078891 -212.35154539 208.28112333 -212.34918213 203.9543457 C-212.34300353 195.78796367 -212.32664254 187.62163617 -212.30648315 179.45527798 C-212.28401041 170.14672514 -212.27310232 160.83816949 -212.26309228 151.52959621 C-212.24227245 132.40612891 -212.20716808 113.28271211 -212.16244507 94.1592865 C-186.45981659 81.21459435 -160.74808086 68.28815722 -135.02533531 55.38348293 C-123.0824408 49.39139701 -111.14262446 43.39334318 -99.20980835 37.38121033 C-88.81102374 32.14199038 -78.40669195 26.91398662 -67.99550116 21.69946057 C-62.48135861 18.9371677 -56.97018688 16.16928174 -51.46561813 13.3879528 C-46.28679276 10.7714356 -41.10069481 8.16995646 -35.90857697 5.57992172 C-34.00223241 4.62564699 -32.09863367 3.66586453 -30.19800949 2.70024681 C-27.60608215 1.38443356 -25.00507724 0.08864571 -22.40081787 -1.20254517 C-21.64788716 -1.59066189 -20.89495644 -1.97877861 -20.11920965 -2.37865645 C-12.33931247 -6.18029912 -7.30710292 -3.71067946 0 0 Z "
        fill="#000101" transform="translate(212.16244506835938,8.840713500976563)" />
    <path
        d="M0 0 C23.92213315 20.53379315 40.25693645 48.08926241 44.1171875 79.71484375 C46.52093717 114.52218409 37.36823851 145.54193427 14.8984375 172.36328125 C-4.76610313 194.86671683 -32.77814394 210.86499346 -62.8828125 213.71484375 C-98.08364211 215.69548556 -129.70530549 206.56524034 -156.3203125 183.02734375 C-157.84770264 181.5968125 -159.36924194 180.15998888 -160.8828125 178.71484375 C-161.48222656 178.17859375 -162.08164062 177.64234375 -162.69921875 177.08984375 C-183.2272809 158.03827795 -194.56681541 128.17531643 -195.8828125 100.71484375 C-195.9358252 99.92352051 -195.98883789 99.13219727 -196.04345703 98.31689453 C-197.28359081 78.62636923 -193.51180698 58.05673557 -183.8828125 40.71484375 C-183.36074219 39.65910156 -182.83867187 38.60335937 -182.30078125 37.515625 C-168.12458161 9.46202149 -142.7843852 -10.64599927 -113.4453125 -21.09765625 C-74.76267135 -33.00000737 -31.5235222 -26.03902225 0 0 Z "
        fill="#9BCB64" transform="translate(451.8828125,279.28515625)" />
    <path
        d="M0 0 C1.08587214 0.54477965 2.17174427 1.08955931 3.29052162 1.65084743 C3.90001392 1.95388473 4.50950622 2.25692203 5.13746798 2.56914228 C7.16799762 3.58112673 9.19261497 4.60440045 11.21743202 5.62776089 C12.67608275 6.35765068 14.1350866 7.08683511 15.59441566 7.8153677 C19.54796194 9.79156756 23.49650093 11.77758739 27.44421148 13.76541352 C31.57332022 15.84247936 35.70696868 17.91047031 39.8401432 19.9794302 C47.66301394 23.8970791 55.48177062 27.82286658 63.29908049 31.75159782 C73.86510166 37.06115368 84.43743579 42.35810813 95.0094223 47.65577316 C111.6615736 56.00064873 128.30523067 64.36232382 144.95034218 72.72126675 C144.95034218 107.70126675 144.95034218 142.68126675 144.95034218 178.72126675 C141.48534218 179.71126675 141.48534218 179.71126675 137.95034218 180.72126675 C123.87858018 184.77429852 110.63590533 189.72406831 98.01284218 197.22126675 C97.43461708 197.56447964 96.85639198 197.90769253 96.26064491 198.26130581 C93.63913421 199.87419821 91.27030711 201.41432988 89.03798866 203.55575466 C83.56891372 208.63080645 83.56891372 208.63080645 79.25782204 208.87174892 C76.2020276 208.37741105 73.3247428 207.64540596 70.35268593 206.7798605 C69.27781425 206.50360332 68.20294258 206.22734615 67.09549904 205.94271755 C63.68075155 205.05512275 60.28583299 204.10827965 56.88784218 203.15876675 C54.56923248 202.54475526 52.24957555 201.93468381 49.9288578 201.32868862 C44.25642822 199.83830544 38.59905365 198.29902466 32.95034218 196.72126675 C32.88909681 194.78489242 32.84519207 192.84796371 32.80874062 190.91096401 C32.76931343 189.29315784 32.76931343 189.29315784 32.72908974 187.64266872 C32.95034218 184.72126675 32.95034218 184.72126675 35.21596718 181.6861105 C36.20081093 181.01708706 37.18565468 180.34806362 38.20034218 179.65876675 C39.17487343 178.96654018 40.14940468 178.27431362 41.15346718 177.5611105 C43.95034218 175.72126675 43.95034218 175.72126675 46.09279823 174.68188381 C49.15063415 171.45437186 48.50672674 167.79155279 48.4679203 163.51154995 C48.47492958 162.5681123 48.48193886 161.62467464 48.48916054 160.65264797 C48.50680214 157.52548405 48.49509103 154.39922158 48.48159218 151.272048 C48.48428644 149.09831474 48.48816831 146.92458266 48.49318886 144.75085354 C48.4990932 140.18854741 48.49049482 135.62655413 48.47182655 131.06428432 C48.44910442 125.22784133 48.46211171 119.3921368 48.48611641 113.55572128 C48.50060682 109.0628601 48.4959523 104.57017235 48.48560524 100.07730579 C48.4829434 97.92640692 48.48618853 95.77549212 48.49552345 93.62461185 C48.50573456 90.60863964 48.49012067 87.5938415 48.4679203 84.5779562 C48.47601723 83.69505917 48.48411415 82.81216213 48.49245644 81.90251064 C48.39846326 74.97550696 46.56464538 69.75893888 42.02065468 64.47907925 C36.27876767 59.65958373 32.02043512 57.8463248 24.51284218 57.28376675 C19.74838195 56.92418484 16.31930705 55.70715987 11.95034218 53.72126675 C-9.5061748 47.61997317 -35.39257837 50.20873167 -54.96372032 60.82282925 C-65.10409937 67.06108775 -72.40559407 75.70673439 -76.17856407 87.14314175 C-78.15874896 95.59958349 -78.64177543 104.07416005 -79.04965782 112.72126675 C-73.76965782 112.72126675 -68.48965782 112.72126675 -63.04965782 112.72126675 C-63.09268028 114.48123989 -63.13570274 116.24121304 -63.18002892 118.0545187 C-63.30643819 123.90983793 -63.36694743 129.76391345 -63.3838768 135.62041855 C-63.39648879 139.16767875 -63.43442787 142.71067319 -63.53305626 146.25666714 C-64.81992267 162.70494464 -64.81992267 162.70494464 -58.87485313 177.05866909 C-55.55854285 179.95225647 -52.03786604 181.8948764 -48.04965782 183.72126675 C-47.04965782 184.72126675 -47.04965782 184.72126675 -46.95200157 187.443923 C-46.96360313 188.54607143 -46.9752047 189.64821987 -46.98715782 190.78376675 C-46.99618126 191.88849331 -47.0052047 192.99321987 -47.01450157 194.131423 C-47.02610313 194.98607143 -47.0377047 195.84071987 -47.04965782 196.72126675 C-47.77913628 196.89808483 -48.50861473 197.07490292 -49.26019859 197.25707912 C-56.17666128 198.93584036 -63.09014384 200.62627755 -70.0006218 202.32947731 C-73.55240568 203.20444629 -77.10513401 204.07506024 -80.66049767 204.93537807 C-84.09963922 205.76774907 -87.53567143 206.61200669 -90.96996498 207.46415043 C-92.90091879 207.94010706 -94.83480786 208.40410495 -96.76874352 208.8677969 C-109.74051997 212.10870066 -121.26182451 217.17595384 -128.92465782 228.65876675 C-133.86375621 237.70377917 -134.55398341 246.05216724 -134.73715782 256.28376675 C-134.77131798 257.57863003 -134.80547813 258.87349331 -134.84067345 260.20759487 C-134.92258474 263.37873218 -134.99192179 266.54961268 -135.04965782 269.72126675 C-137.72009798 267.37101058 -138.94740306 265.11118407 -140.31918907 261.84626675 C-140.73023888 260.87117153 -141.14128868 259.89607632 -141.56479454 258.89143276 C-141.99292442 257.84527798 -142.42105431 256.79912319 -142.86215782 255.72126675 C-143.52755577 254.09692715 -143.52755577 254.09692715 -144.2063961 252.43977261 C-151.02601936 235.5548031 -155.15864988 219.45793596 -157.66415977 201.39582729 C-157.91095095 199.68360603 -158.20752693 197.97738276 -158.56665611 196.2851553 C-159.2567593 191.19314257 -159.1799512 186.15718421 -159.16318321 181.0244894 C-159.16332924 179.85318478 -159.16347527 178.68188015 -159.16362572 177.47508144 C-159.16293025 173.61181173 -159.15515491 169.74859051 -159.14731407 165.88532925 C-159.14544859 163.20347417 -159.14397609 160.52162176 -159.14302635 157.8397665 C-159.13992309 151.50758304 -159.13172328 145.17541693 -159.12167686 138.8432411 C-159.11048447 131.63163336 -159.1049974 124.42002477 -159.09998143 117.2084105 C-159.08953981 102.37935373 -159.07195987 87.55031054 -159.04965782 72.72126675 C-139.60547136 62.9057646 -120.15216632 53.10855862 -100.68781662 43.33309746 C-91.65055019 38.79383214 -82.61637316 34.24861056 -73.5892086 29.68928432 C-65.72184213 25.71575327 -57.84892998 21.75347473 -49.96913207 17.80464989 C-45.79636086 15.71304608 -41.62659812 13.6158864 -37.46342659 11.5052309 C-33.545309 9.51903559 -29.61995402 7.54796633 -25.68852043 5.58826733 C-24.2465883 4.86620024 -22.80739285 4.13863815 -21.37120247 3.40521717 C-19.40980379 2.40461716 -17.43951523 1.42425602 -15.465765 0.44830227 C-14.36514418 -0.10569531 -13.26452335 -0.6596929 -12.13055038 -1.23047829 C-7.43169105 -2.82923661 -4.48370499 -1.88003475 0 0 Z "
        fill="#90E7EC" transform="translate(207.04965782165527,60.278733253479004)" />
    <path
        d="M0 0 C0.226875 1.27875 0.45375 2.5575 0.6875 3.875 C2.787086 13.21301887 7.43300731 22.03293294 15.32421875 27.65625 C20.50142132 30.89101057 25.14620059 32.80482522 31 35 C31 45.89 31 56.78 31 68 C36.28 68 41.56 68 47 68 C47 57.11 47 46.22 47 35 C51.62 33.02 56.24 31.04 61 29 C71.35605445 21.52062734 75.57954123 12.35707897 78 0 C85.55974278 1.4359288 93.0312607 3.15112091 100.5 5 C101.5828125 5.26039063 102.665625 5.52078125 103.78125 5.7890625 C104.8125 6.04429687 105.84375 6.29953125 106.90625 6.5625 C107.83759766 6.79066406 108.76894531 7.01882813 109.72851562 7.25390625 C112 8 112 8 114 10 C113.59910156 10.41507812 113.19820312 10.83015625 112.78515625 11.2578125 C89.26598742 36.75024493 78.70150245 71.95272847 79.83447266 106.06835938 C80.49879402 117.83409823 82.60180235 129.4800313 85 141 C77.10893632 147.47862715 68.66989635 153.1855307 60.21484375 158.8918457 C58.55920598 160.0140257 56.90885849 161.14404727 55.26367188 162.28149414 C52.86969736 163.93599969 50.46067042 165.56600105 48.046875 167.19140625 C46.94675079 167.96140709 46.94675079 167.96140709 45.82440186 168.7469635 C43.90573894 170.01823211 42.13593315 171.14282864 40 172 C35.94345466 171.15445143 33.15195301 168.80200609 29.875 166.3125 C25.35068925 162.95244522 20.73759424 159.87107942 15.96484375 156.87890625 C10.71320388 153.55079192 5.56639255 150.06404108 0.40087891 146.60449219 C-2.41324097 144.72383368 -5.23185697 142.85001179 -8.05078125 140.9765625 C-9.11401611 140.26943115 -10.17725098 139.5622998 -11.27270508 138.83374023 C-13.38529436 137.42881003 -15.49839329 136.0246458 -17.61206055 134.62133789 C-18.59601807 133.96641357 -19.57997559 133.31148926 -20.59375 132.63671875 C-21.90375977 131.76599731 -21.90375977 131.76599731 -23.24023438 130.87768555 C-24.60631836 129.9482312 -24.60631836 129.9482312 -26 129 C-26.61702286 128.74653305 -27.23404572 128.4930661 -27.86976624 128.23191833 C-30.25358663 127.06276327 -31.44774465 126.17808916 -33 124 C-34.01205611 118.59701195 -33.81369432 113.23014452 -33.68359375 107.76171875 C-33.67053063 106.15462909 -33.66056982 104.54751146 -33.65357971 102.94038391 C-33.62690917 98.71953762 -33.55819892 94.50038967 -33.48065186 90.2802124 C-33.40891884 85.97024511 -33.37704695 81.66000212 -33.34179688 77.34960938 C-33.26682313 68.89887501 -33.14374245 60.44984472 -33 52 C-38.28 52 -43.56 52 -49 52 C-49 71.14 -49 90.28 -49 110 C-53.58505863 106.06994975 -57.55616491 102.52205481 -61.5625 98.125 C-62.89474609 96.67480469 -62.89474609 96.67480469 -64.25390625 95.1953125 C-65.16944351 94.13035676 -66.08480135 93.06524675 -67 92 C-67.5131929 91.45983246 -68.0263858 90.91966492 -68.55513 90.36312866 C-73.65112501 84.50201427 -73.85400282 79.46794113 -73.7265625 71.90625 C-73.72805801 70.18710388 -73.72805801 70.18710388 -73.72958374 68.43322754 C-73.72492007 66.01937902 -73.70556795 63.60551917 -73.67236328 61.19189453 C-73.62514309 57.51115339 -73.63125676 53.83331139 -73.64453125 50.15234375 C-73.63337683 47.79946201 -73.61915651 45.4465924 -73.6015625 43.09375 C-73.60338531 42.00082642 -73.60520813 40.90790283 -73.60708618 39.78186035 C-73.45901399 31.74544345 -71.89887287 26.35658964 -66.625 20.25 C-59.93438848 14.51519012 -54.0198392 12.64247372 -45.48828125 10.546875 C-44.28310349 10.24179016 -43.07792572 9.93670532 -41.83622742 9.62237549 C-38.64851673 8.81822828 -35.45842638 8.02458264 -32.26696777 7.23547363 C-29.0158086 6.42791258 -25.76903056 5.60321669 -22.52148438 4.78125 C-20.05232173 4.16050928 -17.5829283 3.54068568 -15.11328125 2.921875 C-13.94452957 2.62819031 -12.77577789 2.33450562 -11.5716095 2.03192139 C-10.49006088 1.76454163 -9.40851227 1.49716187 -8.29418945 1.22167969 C-7.34187943 0.98503601 -6.3895694 0.74839233 -5.40840149 0.50457764 C-3 0 -3 0 0 0 Z "
        fill="#FDE800" transform="translate(161,273)" />
    <path
        d="M0 0 C0.7312933 0.36443944 1.46258661 0.72887889 2.21604031 1.10436195 C4.65686125 2.32196288 7.09478979 3.54524304 9.53276062 4.76853943 C11.28552666 5.64438581 13.03846586 6.51988572 14.79156494 7.39506531 C19.54502901 9.7693761 24.29598126 12.14867289 29.04644418 14.52898145 C34.01478614 17.017545 38.98523709 19.5018894 43.95541382 21.98678589 C52.29669034 26.1578922 60.63641251 30.33209265 68.97514343 34.50828552 C78.62781246 39.34249382 88.28257469 44.1724998 97.93854171 49.00011688 C107.21933348 53.6402081 116.49898223 58.28258014 125.77799034 62.92623711 C129.7318193 64.9049207 133.68599001 66.88291894 137.64042091 68.86039925 C142.28950362 71.18544117 146.93756562 73.51251104 151.58482933 75.84118652 C153.29498917 76.69773228 155.0054925 77.55359262 156.71635437 78.40873528 C159.04189533 79.57126208 161.36619965 80.73622384 163.69018555 81.90185547 C164.7185604 82.41488144 164.7185604 82.41488144 165.76771051 82.93827158 C170.41345443 85.27325667 170.41345443 85.27325667 171.52763367 86.38743591 C171.62360571 87.98165627 171.64951291 89.58014041 171.64788818 91.17724609 C171.64995018 92.73171951 171.64995018 92.73171951 171.65205383 94.31759644 C171.64845856 95.464142 171.64486328 96.61068756 171.64115906 97.79197693 C171.64130508 98.99181213 171.64145111 100.19164734 171.64160156 101.42784119 C171.6410226 104.72728782 171.63599344 108.02667255 171.62902761 111.32610822 C171.62279339 114.77077888 171.62219022 118.2154503 171.6210022 121.66012573 C171.61788908 128.18726321 171.60967596 134.71438402 171.59965271 141.24151415 C171.58849096 148.67065607 171.58298097 156.09979878 171.57795727 163.528947 C171.56749333 178.8151199 171.54969378 194.10127511 171.52763367 209.38743591 C166.24763367 209.38743591 160.96763367 209.38743591 155.52763367 209.38743591 C155.19763367 172.09743591 154.86763367 134.80743591 154.52763367 96.38743591 C149.24763367 93.74743591 143.96763367 91.10743591 138.52763367 88.38743591 C129.84006076 83.92314345 129.84006076 83.92314345 126.72143555 82.30805969 C106.53929692 71.86679511 86.23381215 61.67909303 65.89915466 51.53886414 C61.58250056 49.38573638 57.26703334 47.2302324 52.95146179 45.07493591 C47.34122721 42.27328685 41.73066049 39.47230665 36.11929131 36.67293072 C33.29215064 35.26248571 30.46520812 33.85164388 27.63830376 32.44072533 C26.19762619 31.72178283 24.75686344 31.00301101 23.31602669 30.28438759 C21.14396776 29.2009804 18.97224268 28.11690657 16.80058289 27.03269958 C16.15264676 26.70969564 15.50471064 26.3866917 14.83714008 26.05389977 C11.12684989 24.20059873 7.43835128 22.3106856 3.76591492 20.38352966 C2.52358093 19.73867615 2.52358093 19.73867615 1.25614929 19.08079529 C-0.40277395 18.21847706 -2.05617745 17.3454817 -3.70478821 16.46360779 C-4.51883118 16.04530701 -5.33287415 15.62700623 -6.17158508 15.19602966 C-6.88145569 14.8227655 -7.59132629 14.44950134 -8.32270813 14.06492615 C-13.31071413 12.492897 -17.55895033 15.25361293 -21.96064758 17.48509216 C-22.58150742 17.7976445 -23.20236725 18.11019684 -23.84204102 18.43222046 C-25.82588922 19.43249296 -27.80542516 20.44097513 -29.78486633 21.44993591 C-31.07169196 22.10088777 -32.35879937 22.7512829 -33.64619446 23.40110779 C-36.19517359 24.68832828 -38.74261594 25.97852759 -41.28913879 27.27059937 C-45.08204415 29.19236635 -48.88287857 31.09802173 -52.68721008 32.99705505 C-54.09872638 33.70224609 -55.51020847 34.40750558 -56.92166138 35.11282349 C-57.66192377 35.48273596 -58.40218616 35.85264843 -59.16488075 36.23377037 C-63.18343653 38.24291373 -67.20029992 40.25543457 -71.21723938 42.26780701 C-79.77801061 46.55625572 -88.33971499 50.84283682 -96.90204144 55.12817955 C-102.04019388 57.6998612 -107.17796798 60.27229287 -112.31489563 62.84642029 C-117.34455193 65.36675159 -122.3752338 67.88502535 -127.40657997 70.40198135 C-129.29589599 71.34754774 -131.18486626 72.29380535 -133.07344627 73.24084091 C-145.43134804 79.43705539 -157.85475821 85.47361602 -170.35752296 91.3721962 C-172.23518513 92.27357605 -174.09156807 93.21898655 -175.94433594 94.17048645 C-178.47236633 95.38743591 -178.47236633 95.38743591 -180.47236633 95.38743591 C-180.38803505 111.87888455 -180.29274833 128.3702293 -180.18483925 144.86153889 C-180.13497018 152.52078622 -180.08852719 160.18002421 -180.05049133 167.83934021 C-180.01728428 174.52444987 -179.9773011 181.20948097 -179.92957628 187.8945033 C-179.90459256 191.42576144 -179.88273292 194.95696939 -179.86902237 198.48829079 C-179.6502047 252.67030331 -166.18516601 304.17510071 -130.47236633 346.38743591 C-129.76982727 347.22017029 -129.06728821 348.05290466 -128.34346008 348.91087341 C-126.1096149 351.46262825 -123.81041509 353.93056255 -121.47236633 356.38743591 C-120.91984192 356.97250916 -120.3673175 357.5575824 -119.79804993 358.16038513 C-117.87100544 360.18839676 -115.92425243 362.1958374 -113.97236633 364.19993591 C-113.09415222 365.12298523 -113.09415222 365.12298523 -112.19819641 366.06468201 C-99.09886444 379.32204198 -82.89002594 389.29716586 -67.34736633 399.38743591 C-63.46607188 401.91634176 -59.58757057 404.44949034 -55.71064758 406.98509216 C-54.75514511 407.60948685 -53.79964264 408.23388153 -52.81518555 408.87719727 C-46.77856141 412.83537407 -40.81031797 416.87819958 -34.89033508 421.00852966 C-34.16606323 421.51131439 -33.44179138 422.01409912 -32.6955719 422.53211975 C-29.34821851 424.856791 -26.01443578 427.1971642 -22.70039368 429.56907654 C-21.53251077 430.38305194 -20.3640886 431.19625441 -19.19502258 432.00852966 C-18.20252502 432.71421082 -17.21002747 433.41989197 -16.18745422 434.1469574 C-13.56788094 435.70865838 -13.56788094 435.70865838 -11.08187866 434.64355469 C-8.55711405 433.4282302 -6.32208205 432.10235315 -4.00508118 430.53001404 C-2.72883377 429.669021 -2.72883377 429.669021 -1.42680359 428.79063416 C-0.52144867 428.17289124 0.38390625 427.55514832 1.31669617 426.91868591 C2.25693634 426.28257385 3.19717651 425.64646179 4.16590881 424.99107361 C7.16450494 422.96094438 10.15861618 420.92431005 13.15263367 418.88743591 C15.17577628 417.51590707 17.19921054 416.14480834 19.22294617 414.77415466 C23.67404309 411.75857776 28.12229318 408.73885387 32.56806946 405.71543884 C37.48130039 402.38572653 37.48130039 402.38572653 39.53935242 402.46165466 C42.36282803 403.77631816 42.99690074 405.42824985 44.34013367 408.19993591 C44.99948914 409.50897888 44.99948914 409.50897888 45.67216492 410.84446716 C46.63751117 413.71405807 46.61248607 414.61589309 45.52763367 417.38743591 C43.86914062 418.90884399 43.86914062 418.90884399 41.68901062 420.36082458 C40.46556694 421.18770027 40.46556694 421.18770027 39.21740723 422.03128052 C37.88016853 422.90947197 37.88016853 422.90947197 36.51591492 423.80540466 C35.13619759 424.73042534 35.13619759 424.73042534 33.72860718 425.6741333 C30.77282916 427.65186613 27.80666168 429.61337431 24.84013367 431.57493591 C22.89088328 432.87664859 20.9423076 434.17937221 18.99443054 435.48313904 C15.23226802 437.9981697 11.46016197 440.4970264 7.67851257 442.98265076 C4.48669055 445.08133376 1.32206943 447.20978872 -1.81465149 449.38987732 C-2.45626724 449.82697525 -3.097883 450.26407318 -3.75894165 450.7144165 C-5.41550331 451.84354544 -7.0612831 452.98844948 -8.70600891 454.13475037 C-11.47236633 455.38743591 -11.47236633 455.38743591 -13.79804993 454.95237732 C-17.67453918 452.68395518 -21.43933139 450.28413924 -25.17939758 447.79759216 C-26.04093948 447.22974503 -26.90248138 446.66189789 -27.79013062 446.07684326 C-30.62498049 444.20610425 -33.4551412 442.32841622 -36.28486633 440.44993591 C-38.25566518 439.1453099 -40.2265319 437.84078641 -42.19746399 436.53636169 C-48.29551209 432.4963353 -54.38498448 428.44351053 -60.47236633 424.38743591 C-61.4337854 423.74727539 -62.39520447 423.10711487 -63.38575745 422.44755554 C-68.86146424 418.80033008 -74.33136619 415.14464434 -79.79325867 411.47676086 C-81.47119863 410.35052238 -83.15022365 409.2258985 -84.83042908 408.1030426 C-100.06373283 397.91386898 -114.24719848 387.10669999 -127.47236633 374.38743591 C-127.96366028 373.91805603 -128.45495422 373.44867615 -128.96113586 372.96507263 C-163.2603524 340.04935391 -187.81897266 292.37593329 -194.08839607 245.14998055 C-194.35765162 243.212772 -194.65337948 241.2791456 -194.96864128 239.3488903 C-196.32865547 230.7605857 -196.748306 222.4485079 -196.69941711 213.76292419 C-196.69885112 212.36186227 -196.69917322 210.96079975 -196.70030212 209.55973816 C-196.70086931 205.80443487 -196.68921941 202.0492628 -196.67515421 198.29398966 C-196.66253952 194.35158381 -196.66146798 190.40917402 -196.65910339 186.4667511 C-196.65291986 179.02275242 -196.63655198 171.57881341 -196.61640441 164.13484085 C-196.59394731 155.65101009 -196.58302746 147.16717629 -196.57301354 138.68332314 C-196.55218249 121.25132638 -196.51706822 103.81938748 -196.47236633 86.38743591 C-168.64482498 71.47835461 -140.28509449 57.55163679 -112.07390881 43.3880806 C-101.38667876 38.02206185 -90.70624379 32.64295603 -80.0339424 27.24730515 C-72.49142356 23.43541859 -64.94136318 19.63875419 -57.38556558 15.85325789 C-52.8845903 13.59768821 -48.38730052 11.33539107 -43.89813805 9.05638885 C-39.69174328 6.92127288 -35.47637304 4.80507985 -31.25327492 2.70320511 C-29.7058069 1.92889313 -28.16175776 1.14770515 -26.62145996 0.35922623 C-24.52043634 -0.7149995 -22.40856232 -1.7639022 -20.29211426 -2.80732727 C-19.68443606 -3.12538952 -19.07675786 -3.44345176 -18.45066518 -3.77115226 C-11.5377374 -7.10346787 -6.29462179 -3.17131398 0 0 Z "
        fill="#00C0FC" transform="translate(212.4723663330078,27.612564086914063)" />
    <path
        d="M0 0 C2.72656304 1.08128502 4.27627768 2.74897286 6.33787441 4.82876015 C7.19846462 5.68957695 8.05905483 6.55039375 8.94572353 7.43729591 C9.8656509 8.37270714 10.78557827 9.30811836 11.73338223 10.27187538 C12.69107942 11.23516989 13.64944269 12.19780262 14.60844326 13.15979958 C17.12709953 15.68989396 19.63661561 18.22886842 22.14433193 20.76980019 C24.70631454 23.3625059 27.27684224 25.94670869 29.84666348 28.53164101 C34.88500563 33.60212903 39.91374057 38.68204794 44.93650723 43.76796913 C39.50242088 50.37661078 33.47677963 56.36184041 27.42332363 62.39467812 C26.25967685 63.55804243 25.096251 64.72162776 23.93302822 65.88541603 C20.79109025 69.02763968 17.6460893 72.16678106 14.50051069 75.3053596 C11.20755212 78.59204637 7.91744492 81.88158501 4.62702847 85.17081642 C-1.59689367 91.3916365 -7.82335944 97.6099041 -14.05075324 103.82724863 C-21.14342829 110.90872754 -28.23324762 117.99306261 -35.32283378 125.07763374 C-49.89988808 139.64424915 -64.48050776 154.20729125 -79.06349277 168.76796913 C-83.94326029 164.70242242 -88.53204533 160.43970637 -93.00856113 155.93642616 C-93.99032825 154.95487808 -93.99032825 154.95487808 -94.99192905 153.95350075 C-97.13144691 151.81329224 -99.26741153 149.6695753 -101.40333652 147.52578163 C-102.89526932 146.03198164 -104.38742463 144.53840385 -105.87979221 143.04503822 C-109.78968227 139.13134674 -113.69655871 135.21466048 -117.60279942 131.29732704 C-121.59633283 127.29352825 -125.59273086 123.29259101 -129.5888834 119.29140663 C-137.41654763 111.453047 -145.24102877 103.6115182 -153.06349277 95.76796913 C-149.75786098 91.85175921 -146.43461172 88.01369226 -142.80226231 84.39321327 C-142.02190617 83.61293266 -141.24155003 82.83265205 -140.43754673 82.02872658 C-139.61543705 81.21177818 -138.79332737 80.39482979 -137.94630527 79.55312538 C-137.08914921 78.69738426 -136.23199314 77.84164314 -135.34886265 76.95997047 C-132.63109323 74.24776448 -129.90985386 71.53907083 -127.18849277 68.83046913 C-125.33669936 66.98369544 -123.48513444 65.1366926 -121.63380527 63.28945351 C-117.11300843 58.77963712 -112.58936332 54.27269344 -108.06349277 49.76796913 C-103.80459442 53.34543795 -99.71018598 56.99924678 -95.78614902 60.94765663 C-94.39879551 62.33984413 -94.39879551 62.33984413 -92.98341465 63.76015663 C-92.03088428 64.72103822 -91.078411 65.68197639 -90.12599277 66.64296913 C-89.14641041 67.62757833 -88.1665944 68.61195514 -87.18653965 69.59609413 C-84.80989026 71.98445116 -82.43561921 74.37512125 -80.06349277 76.76796913 C-75.05772167 72.58012776 -70.38632856 68.20775348 -65.81471348 63.55336952 C-65.12761295 62.85838356 -64.44051243 62.1633976 -63.73259068 61.44735146 C-62.25294854 59.95061581 -60.77436022 58.45283778 -59.2967329 56.95411301 C-56.15583688 53.77098088 -53.00546943 50.59729381 -49.85564804 47.42299747 C-44.00075876 41.52241549 -38.14985983 35.61800695 -32.31520176 29.69741249 C-28.24598808 25.56899381 -24.16482702 21.45273123 -20.07535458 17.34438324 C-18.51944876 15.77670376 -16.96809756 14.20449055 -15.42136669 12.62775803 C-13.2669137 10.43253888 -11.09761106 8.25312255 -8.92408848 6.07680702 C-8.28556446 5.41873558 -7.64704044 4.76066414 -6.98916721 4.08265114 C-6.39637974 3.49529182 -5.80359226 2.90793251 -5.19284153 2.30277443 C-4.68204202 1.78606713 -4.1712425 1.26935984 -3.64496422 0.73699474 C-2.06349277 -0.23203087 -2.06349277 -0.23203087 0 0 Z "
        fill="#030302" transform="translate(426.0634927749634,289.2320308685303)" />
    <path
        d="M0 0 C3.52344644 1.6586188 5.79901878 3.56657308 8.546875 6.3515625 C9.39121094 7.20234375 10.23554688 8.053125 11.10546875 8.9296875 C11.97816406 9.81914062 12.85085938 10.70859375 13.75 11.625 C14.63816406 12.5221875 15.52632812 13.419375 16.44140625 14.34375 C18.63216969 16.55807004 20.81812763 18.77692435 23 21 C21.52630723 24.40890785 19.62192589 26.62521822 17.00106812 29.23944092 C16.16531754 30.07794083 15.32956696 30.91644073 14.4684906 31.78034973 C13.54995804 32.69169174 12.63142548 33.60303375 11.68505859 34.54199219 C10.70897691 35.51750956 9.73333574 36.49346788 8.75810242 37.46983337 C6.1119385 40.11657103 3.45965413 42.75709755 0.80623198 45.3965559 C-1.96668658 48.15697073 -4.73394125 50.92305155 -7.50180054 53.6885376 C-12.74284012 58.92336137 -17.98895703 64.15306606 -23.23691499 69.38095307 C-29.2117704 75.33345265 -35.18094679 81.29163323 -41.14965177 87.25029898 C-53.42679086 99.50653378 -65.71104648 111.75561142 -78 124 C-82.08822577 120.55672674 -86.05684457 117.06762835 -89.83374023 113.27978516 C-90.7141246 112.39932526 -91.59450897 111.51886536 -92.50157166 110.61172485 C-93.42788895 109.68024628 -94.35420624 108.7487677 -95.30859375 107.7890625 C-96.28485986 106.81092733 -97.26134994 105.83301565 -98.23805237 104.85531616 C-100.78672577 102.30285601 -103.33237958 99.74740552 -105.87738037 97.19128418 C-108.48346618 94.57490086 -111.09244621 91.96140697 -113.70117188 89.34765625 C-118.80359118 84.23456754 -123.90281857 79.11831088 -129 74 C-127.3413812 70.47655356 -125.43342692 68.20098122 -122.6484375 65.453125 C-121.79765625 64.60878906 -120.946875 63.76445312 -120.0703125 62.89453125 C-119.18085938 62.02183594 -118.29140625 61.14914062 -117.375 60.25 C-116.4778125 59.36183594 -115.580625 58.47367187 -114.65625 57.55859375 C-112.44192996 55.36783031 -110.22307565 53.18187237 -108 51 C-103.89891114 52.62156024 -101.16851833 55.5767703 -98.140625 58.6640625 C-97.59138367 59.21613373 -97.04214233 59.76820496 -96.47625732 60.33700562 C-94.72940707 62.09501815 -92.98965399 63.8598689 -91.25 65.625 C-90.06426409 66.8207708 -88.8780712 68.01608865 -87.69140625 69.2109375 C-84.78894915 72.13540253 -81.8928359 75.06601874 -79 78 C-73.95972788 73.77769687 -69.23088402 69.37012184 -64.59594727 64.70947266 C-63.892668 64.00633942 -63.18938873 63.30320618 -62.46479797 62.57876587 C-60.16295302 60.27622958 -57.86466098 57.97018187 -55.56640625 55.6640625 C-53.96237208 54.05816139 -52.3581156 52.4524823 -50.75364685 50.84701538 C-46.5478393 46.63740446 -42.34504457 42.42479819 -38.1428833 38.21154785 C-33.84773228 33.90613569 -29.54972054 29.6035814 -25.25195312 25.30078125 C-16.83184299 16.86997228 -8.41491493 8.43599416 0 0 Z "
        fill="#FDFDFD" transform="translate(425,311)" />
    <path
        d="M0 0 C1.65991211 1.65478516 1.65991211 1.65478516 3.27734375 3.7890625 C3.87353516 4.56636719 4.46972656 5.34367188 5.08398438 6.14453125 C6.00147461 7.37236328 6.00147461 7.37236328 6.9375 8.625 C7.54529297 9.42035156 8.15308594 10.21570313 8.77929688 11.03515625 C9.98324773 12.61704638 11.17143723 14.21106097 12.34326172 15.81689453 C13.89966355 17.9620715 13.89966355 17.9620715 15.52001953 19.55419922 C20.55987336 25.03230121 19.96652257 32.53592208 19.98144531 39.56005859 C19.99993688 41.86712477 20.10361769 44.16042152 20.2109375 46.46484375 C20.45207824 57.1877235 20.45207824 57.1877235 16.70678711 61.86206055 C13.90910275 64.13513442 11.03953035 66.06772336 8 68 C6.84433303 69.06125866 5.71446141 70.15228112 4.62890625 71.28515625 C-3.86690326 79.31908712 -12.79650406 80.71000169 -24.27734375 80.67700195 C-36.89169636 79.83362014 -45.07902601 73.45103786 -53.94897461 64.92285156 C-55.96872072 62.87175683 -55.96872072 62.87175683 -58.72558594 61.4921875 C-62.50070098 57.35560803 -61.6127668 52.62157524 -61.48828125 47.234375 C-61.48120651 46.08584045 -61.47413177 44.93730591 -61.46684265 43.75396729 C-61.43885232 40.08531589 -61.37610052 36.41819017 -61.3125 32.75 C-61.28742334 30.26304287 -61.26460908 27.77606182 -61.24414062 25.2890625 C-61.18901025 19.19218772 -61.10533592 13.09620285 -61 7 C-60.09870361 6.98541748 -59.19740723 6.97083496 -58.26879883 6.95581055 C-54.85955671 6.89401489 -51.45102552 6.81973806 -48.04223633 6.73754883 C-46.57912094 6.70470763 -45.11589122 6.6765552 -43.65258789 6.65356445 C-30.52560132 6.4419115 -18.92521602 4.30306597 -6.55859375 -0.328125 C-3.72644242 -1.07183497 -2.69774901 -1.02743784 0 0 Z "
        fill="#FEDDCE" transform="translate(221,166)" />
    <path
        d="M0 0 C3.90954955 2.68600534 8.87799024 1.82023334 13.48046875 1.84765625 C17.109375 2.44921875 17.109375 2.44921875 20.0625 4.15625 C23.33635398 9.4231563 22.63371466 14.70310456 22.421875 20.76171875 C22.39931641 21.97923828 22.37675781 23.19675781 22.35351562 24.45117188 C22.2946803 27.45177357 22.2125164 30.44986672 22.109375 33.44921875 C18.85326131 30.36303692 16.49413506 27.48597105 14.234375 23.63671875 C11.80566512 20.44804057 10.65110221 19.56261785 6.67578125 18.73046875 C-0.24981479 18.56308274 -5.94637838 19.38340674 -12.2019043 22.31591797 C-24.81172273 27.63097991 -38.37845914 26.80879307 -51.765625 26.63671875 C-53.82160472 26.62163702 -55.87759521 26.60795482 -57.93359375 26.59570312 C-62.91954157 26.56299165 -67.90496125 26.51140401 -72.890625 26.44921875 C-71.74249999 17.45382329 -67.85432339 11.36562207 -60.73046875 5.72265625 C-47.90504197 -3.15439073 -13.38000347 -10.9749202 0 0 Z "
        fill="#4F565D" transform="translate(217.890625,130.55078125)" />
    <path d="M0 0 C31.68 0 63.36 0 96 0 C96 5.61 96 11.22 96 17 C64.32 17 32.64 17 0 17 C0 11.39 0 5.78 0 0 Z "
        fill="#000000" transform="translate(416,140)" />
    <path
        d="M0 0 C0.97066406 0.73017334 0.97066406 0.73017334 1.9609375 1.47509766 C5.87186684 3.43747432 9.34852462 3.43132256 13.625 3.3984375 C14.4495166 3.40130768 15.2740332 3.40417786 16.12353516 3.40713501 C17.86166066 3.40917072 19.59980933 3.4036754 21.33789062 3.39111328 C23.99140879 3.375052 26.64340395 3.39097809 29.296875 3.41015625 C30.98958668 3.40817373 32.68229742 3.40432987 34.375 3.3984375 C35.16471191 3.40451019 35.95442383 3.41058289 36.76806641 3.4168396 C41.35903482 3.35850826 44.30561593 2.7790673 48 0 C49.05795626 20.26573984 49.05795626 20.26573984 41.35546875 28.828125 C35.28041227 34.47806467 28.95368629 36.6218771 20.70703125 36.33984375 C13.47065581 35.43138103 9.20435858 31.66297842 4.54296875 26.29296875 C0.40851631 20.14885841 -0.42948207 15.30334805 -0.1875 8.0625 C-0.17396484 7.28326172 -0.16042969 6.50402344 -0.14648438 5.70117188 C-0.11150224 3.80047596 -0.05770959 1.90014166 0 0 Z "
        fill="#FCDCCD" transform="translate(176,257)" />
    <path d="M0 0 C21.12 0 42.24 0 64 0 C64 5.61 64 11.22 64 17 C42.88 17 21.76 17 0 17 C0 11.39 0 5.78 0 0 Z "
        fill="#000000" transform="translate(416,172)" />
    <path d="M0 0 C10.56 0 21.12 0 32 0 C32 5.61 32 11.22 32 17 C21.44 17 10.88 17 0 17 C0 11.39 0 5.78 0 0 Z "
        fill="#000000" transform="translate(416,204)" />
</svg>